<svg xmlns="http://www.w3.org/2000/svg" viewBox="0 0 512 512">
  <path fill="currentColor" d="M390.9 298.5c0 0 0 .1 .1 .1c9.2 19.4 14.3 41.2 14.3 64.3c0 84.9-68.9 153.8-153.8 153.8S97.7 447.8 97.7 362.9c0-84.9 68.9-153.8 153.8-153.8c16.1 0 31.6 2.5 46.2 7.1l-42.5-40.7c-74.5 0-135 60.5-135 135s60.5 135 135 135s135-60.5 135-135c0-31.7-10.9-60.8-29.2-83.8l-29.1 29.1z"/>
  <path fill="currentColor" d="M506.1 93.8L267.8 0L0 115.1l91.4 43.3c.9-1.8 1.8-3.6 2.8-5.3L267.8 63.7l173.6 81.6L267.8 227l-60.2-28.5c1 1.7 1.9 3.4 2.8 5.2l57.3 27.1L506.1 145V93.8z"/>
  <circle fill="currentColor" cx="267.8" cy="362.9" r="73.5"/>
</svg>
